<svg id="Grupo_48" data-name="Grupo 48" xmlns="http://www.w3.org/2000/svg" width="60.281" height="41.761" viewBox="0 0 60.281 41.761">
  <g id="Grupo_3" data-name="Grupo 3">
    <path id="Trazado_1" data-name="Trazado 1" d="M60.281,41.761H0V0H60.281Zm-.762-.769V.753H.757V40.992Z"/>
    <g id="Grupo_1" data-name="Grupo 1" transform="translate(2.927 24.214)">
      <path id="Trazado_2" data-name="Trazado 2" d="M330.782,213.735h-.954V202.029c.443,0,.882,0,1.321.007.05,0,.115.083.145.142q1.135,2.237,2.262,4.477l2.81,5.575a.245.245,0,0,0,.093.109v-10.3h.949v11.7a8.274,8.274,0,0,0-.974.008c-.34.041-.49-.1-.635-.392q-2.452-4.868-4.927-9.723a.184.184,0,0,0-.089-.09Z" transform="translate(-292.99 -201.885)"/>
      <path id="Trazado_3" data-name="Trazado 3" d="M188.41,207.6a2.266,2.266,0,0,1,1.479,1.961,5.174,5.174,0,0,1-.168,2.556,2.452,2.452,0,0,1-2.328,1.578c-1.165.041-2.332.009-3.5.009-.03,0-.061-.006-.1-.011V202c.061,0,.116-.01.17-.01,1.021,0,2.042-.016,3.063,0a2.426,2.426,0,0,1,2.187,1.145,2.243,2.243,0,0,1,.342,1.068,13.563,13.563,0,0,1,.006,1.679A2.172,2.172,0,0,1,188.41,207.6Zm-3.618,5.121a.386.386,0,0,0,.074.02c.794,0,1.59.027,2.382-.005a1.663,1.663,0,0,0,1.668-1.62,11.98,11.98,0,0,0,0-1.342,2.022,2.022,0,0,0-.151-.694,1.628,1.628,0,0,0-1.6-.968c-.737-.018-1.475,0-2.212,0-.054,0-.107.008-.164.013Zm0-5.559a.459.459,0,0,0,.084.018c.743,0,1.487.023,2.229,0a1.377,1.377,0,0,0,1.447-1.26,8.568,8.568,0,0,0,.02-1.358,1.5,1.5,0,0,0-1.589-1.6c-.7-.045-1.41-.013-2.115-.014a.308.308,0,0,0-.077.022Z" transform="translate(-164.56 -201.846)"/>
      <path id="Trazado_4" data-name="Trazado 4" d="M111.4,208.523v5.189H110.4V202.006h.194c1.172,0,2.345-.01,3.517,0a2.786,2.786,0,0,1,1.927.69,2.046,2.046,0,0,1,.666,1.419,17.2,17.2,0,0,1,.015,2.227,2.016,2.016,0,0,1-1.632,1.969c-.168.05-.341.085-.535.133l2.406,5.277c-.357,0-.684.007-1.01-.007-.055,0-.126-.086-.155-.148q-.826-1.809-1.643-3.622c-.2-.435-.39-.872-.594-1.3a.245.245,0,0,0-.167-.13c-.636-.009-1.273-.006-1.91,0A.668.668,0,0,0,111.4,208.523Zm.008-1c1.019,0,2.015.032,3.008-.01a1.3,1.3,0,0,0,1.325-1.341q.016-.822,0-1.645a1.505,1.505,0,0,0-1.474-1.539c-.925-.034-1.852-.017-2.778-.02a.28.28,0,0,0-.081.024Z" transform="translate(-100.02 -201.863)"/>
      <path id="Trazado_5" data-name="Trazado 5" d="M254.9,212.715c-.324,0-.626.007-.928-.007-.052,0-.127-.085-.145-.145q-.53-1.739-1.044-3.482a.209.209,0,0,0-.245-.18q-1.655.009-3.309,0a.209.209,0,0,0-.246.179c-.341,1.15-.695,2.3-1.044,3.443-.018.06-.038.119-.058.184h-1.053c.074-.252.143-.5.216-.737q1.639-5.448,3.276-10.9c.047-.156.108-.231.283-.217a4.517,4.517,0,0,0,.642,0c.15-.01.205.051.245.187q.67,2.306,1.35,4.61l2.037,6.941C254.879,212.624,254.883,212.654,254.9,212.715Zm-2.434-4.732L250.9,202.4h-.037l-1.591,5.583Z" transform="translate(-219.991 -200.853)"/>
      <path id="Trazado_6" data-name="Trazado 6" d="M416.781,212.705c-.319,0-.621-.007-.923,0-.13,0-.139-.082-.163-.163q-.478-1.6-.954-3.195c-.136-.457-.134-.457-.6-.457-1.015,0-2.029,0-3.044,0a.2.2,0,0,0-.234.173c-.342,1.15-.7,2.3-1.036,3.446a.228.228,0,0,1-.272.2c-.27-.013-.541,0-.837,0,.022-.1.035-.183.059-.263q1.715-5.7,3.429-11.4c.043-.144.1-.208.257-.2a3.735,3.735,0,0,0,.623,0c.186-.018.247.063.295.226q.78,2.686,1.572,5.369.895,3.045,1.79,6.09C416.754,212.58,416.763,212.629,416.781,212.705ZM412.789,202.4l-.042,0-1.586,5.566h3.181Z" transform="translate(-362.366 -200.844)"/>
      <path id="Trazado_7" data-name="Trazado 7" d="M24.274,202.11h1.007v.248c0,2.736-.007,5.471.009,8.207a3.447,3.447,0,0,0,.2,1.084,1.889,1.889,0,0,0,1.179,1.15,3.415,3.415,0,0,0,2.1.134,2.318,2.318,0,0,0,1.824-2.354q0-4.094,0-8.188v-.277H31.6v.209q0,4.132,0,8.264a3.383,3.383,0,0,1-.767,2.292,3.018,3.018,0,0,1-1.74.985,5.222,5.222,0,0,1-2.613-.078,2.965,2.965,0,0,1-2.143-2.527,4.968,4.968,0,0,1-.059-.865q-.007-4.009,0-8.018Z" transform="translate(-24.274 -201.957)"/>
    </g>
    <g id="Grupo_2" data-name="Grupo 2" transform="translate(2.132 2.162)">
      <path id="Trazado_8" data-name="Trazado 8" d="M17.683,17.936v18.7H73.694v-18.7ZM28.75,32.146A4.916,4.916,0,0,1,25.1,33.289a3.779,3.779,0,0,1-2.066-.734,3.016,3.016,0,0,1-1.172-2.08,5.91,5.91,0,0,1-.043-.791c0-1.689-.008-3.379,0-5.068a3.232,3.232,0,0,1,2.553-3.208,3.973,3.973,0,0,1,2.78.226,3.4,3.4,0,0,1,1.32,1.166l-.606.6a9.793,9.793,0,0,0-.852-.714,2.837,2.837,0,0,0-3.491.246,2.226,2.226,0,0,0-.715,1.653q-.021,2.723,0,5.446a2.265,2.265,0,0,0,2.129,2.3,5.265,5.265,0,0,0,1.819-.095,2.615,2.615,0,0,0,1.083-.589.21.21,0,0,0,.067-.14q.005-1.674,0-3.347a.32.32,0,0,0-.019-.068h-2.5v-.872H28.9v.2c0,1.462,0,2.925,0,4.387A.39.39,0,0,1,28.75,32.146Zm8.422.979c-.05,0-.116-.08-.142-.137q-1.1-2.411-2.183-4.827a.349.349,0,0,0-.384-.256c-.61.018-1.221.006-1.86.006v5.211h-.97V21.438h.174c1.16,0,2.32,0,3.48,0a2.951,2.951,0,0,1,1.746.513,2.153,2.153,0,0,1,.9,1.731c.036.691.029,1.386,0,2.078a1.925,1.925,0,0,1-1.222,1.8c-.3.131-.613.213-.946.326l2.391,5.245C37.812,33.132,37.492,33.138,37.173,33.125Zm9.254,0c-.078-.253-.159-.514-.237-.776-.284-.951-.57-1.9-.848-2.853a.2.2,0,0,0-.237-.173q-1.674.007-3.347,0a.2.2,0,0,0-.234.175c-.342,1.15-.695,2.3-1.044,3.444-.018.059-.038.118-.059.182H39.394c.063-.219.121-.428.183-.635q1.659-5.511,3.317-11.023a.188.188,0,0,1,.222-.163c.227.01.454.01.681,0a.19.19,0,0,1,.226.161q1.042,3.572,2.091,7.142.65,2.215,1.3,4.429c.007.023.012.047.023.092Zm6.986.051a4.683,4.683,0,0,1-2.675-.127,2.6,2.6,0,0,1-1.747-2.118,5.166,5.166,0,0,1-.08-.919c-.006-1.891-.011-3.781,0-5.672a2.972,2.972,0,0,1,2.7-3.021,4.352,4.352,0,0,1,2.013.148,3.846,3.846,0,0,1,1.745,1.3c.072.09.041.139-.027.2-.2.185-.392.374-.595.568-.16-.17-.308-.348-.476-.5a2.85,2.85,0,0,0-2.7-.758A2.125,2.125,0,0,0,49.9,24.4q-.018,2.93,0,5.861a1.948,1.948,0,0,0,.594,1.52,2.236,2.236,0,0,0,1.169.53,3.335,3.335,0,0,0,2.05-.217,10.969,10.969,0,0,0,1.131-.739l.571.681A4.017,4.017,0,0,1,53.413,33.178Zm5.68-.059h-.97V21.444h.97Zm9.511.006c-.039,0-.094-.085-.11-.139q-.525-1.73-1.038-3.464c-.042-.142-.094-.2-.253-.2q-1.664.012-3.328,0a.215.215,0,0,0-.248.184c-.347,1.161-.7,2.319-1.05,3.48-.034.112-.078.151-.193.148-.288-.008-.577,0-.887,0,.139-.467.271-.912.4-1.355q1.544-5.131,3.086-10.263c.047-.157.109-.227.282-.213a4.681,4.681,0,0,0,.642,0c.134-.007.183.045.219.168q.763,2.612,1.534,5.222.913,3.108,1.824,6.217c.019.065.033.132.055.221C69.217,33.131,68.91,33.137,68.6,33.125Z" transform="translate(-17.683 -17.936)"/>
      <path id="Trazado_9" data-name="Trazado 9" d="M145.889,57.963c.008-.485.014-.97.01-1.454a1.577,1.577,0,0,0-1.716-1.718q-1.266,0-2.532,0a.925.925,0,0,0-.11.013v4.564c1.021,0,2.024.047,3.021-.015A1.272,1.272,0,0,0,145.889,57.963Z" transform="translate(-126.609 -50.346)"/>
      <path id="Trazado_10" data-name="Trazado 10" d="M219.474,58.155l-1.606,5.636h3.213l-1.57-5.632Z" transform="translate(-193.733 -53.306)"/>
      <path id="Trazado_11" data-name="Trazado 11" d="M402.836,58.184l-1.605,5.633h3.215l-1.572-5.635Z" transform="translate(-354.99 -53.329)"/>
    </g>
  </g>
</svg>
